<svg xmlns="http://www.w3.org/2000/svg" xmlns:xlink="http://www.w3.org/1999/xlink" xmlns:sketch="http://www.bohemiancoding.com/sketch/ns" width="50px" height="92px" viewBox="0 0 50 92" version="1.1"><!-- Generator: Sketch 3.0.4 (8053) - http://www.bohemiancoding.com/sketch --><title>about_likes_music</title><desc>Created with Sketch.</desc><defs/><g id="Page-1" stroke="none" stroke-width="1" fill="none" fill-rule="evenodd" sketch:type="MSPage"><g id="me-+-icons" sketch:type="MSLayerGroup" transform="translate(-992.000000, -573.000000)" fill="#FFFFFF"><g id="icons" transform="translate(0.000000, 34.000000)"><g id="about_likes_music" transform="translate(992.000000, 539.000000)"><text id="MUSIC" sketch:type="MSTextLayer" font-family="Avenir Next" font-size="12" font-weight="420" sketch:alignment="middle"><tspan x="6" y="91">MUSIC</tspan></text><g id="Group" sketch:type="MSShapeGroup"><path id="Fill-1" d="M38.7264706 42.2 C38.7117647 42.2 38.7 42.2 38.7 42.2 L38.6941176 42.2 L38.7264706 42.2"/><path id="Fill-2" d="M38.7264706 42.2 C38.7117647 42.2 38.7 42.2 38.7 42.2 L38.6941176 42.2 L38.7264706 42.2"/><path d="M16.6605882 68.8 L12.9461765 66.6 L12.8638235 66.2 C12.8314706 66.1 9.6 51.3 8.2 45.9 C6.45235294 44.3 5.1 43 4.3 42.1 C2.41 40 1.5 37.3 0.3 26.5 C-0.814411765 16.6 3.4 12.3 4.3 11.5 C5.47529412 9.4 7.7 7.6 10.6 6.4 C13.2617647 2.5 19.2 0.1 25.7 0.1 C35.8044118 0.1 39.9 5.7 42.4 10.5 C42.4364706 10.7 42.5 10.8 42.5 11 C44.1985294 12.2 47.3 14.8 47.9 18.9 C48.2729412 19.4 49.1 20.5 49.5 22.2 C50.0588235 24.2 50.2 27.3 47.9 31.2 C47.61 33 46.7 37.8 46 38.9 C45.8835294 39.2 45.4 39.9 39.3 44.5 L36.6114706 65.8 L32.7614706 68.4 L29.4991176 67.2 L29.7932353 48.7 C26.3697059 49.5 22.3 49.6 17.8 49.1 L20.1832353 67.7 L16.6605882 68.8 L16.6605882 68.8 Z M14.5064706 65.5 L16.8688235 66.9 L18.2461765 66.4 L15.7508824 47 L16.8994118 47.2 C19.025 47.5 21.1 47.6 23 47.6 C25.7832353 47.6 28.3 47.3 30.4 46.7 L31.5952941 46.3 L31.2832353 66 L32.5326471 66.4 L34.9591176 64.8 L37.63 43.5 L37.9308824 43.3 C42.4141176 40 44.3 38.4 44.6 38 C44.9132353 37.4 45.7 33.8 46.2 30.8 L46.2161765 30.6 L46.3032353 30.5 C50.2241176 24 46.5 19.9 46.4 19.9 L46.2188235 19.7 L46.1832353 19.4 C45.705 15.5 42.4 13 41.1 12.2 L40.6202941 11.9 L40.6682353 11.3 C40.6738235 11.3 40.7 11.2 40.7 11.1 C38.3344118 6.5 34.7 1.9 25.7 1.9 C19.6279412 1.9 14.2 4.1 11.9 7.6 L11.7220588 7.8 L11.4782353 7.9 C8.79882353 9 6.8 10.7 5.7 12.5 L5.68205882 12.6 L5.51441176 12.8 C5.47029412 12.8 1 16.5 2.1 26.3 C3.21411765 36.7 4 39.1 5.6 40.9 C6.44294118 41.8 7.8 43.1 9.6 44.8 L9.78705882 44.9 L9.85294118 45.2 C11.1291176 50 14 63.1 14.5 65.5 L14.5064706 65.5 Z M13.8361765 35.7 C10.3708824 35.7 6.4 31.8 6.3 31.6 L6.02941176 31.4 L6.02941176 28.3 L4.10352941 25.6 L6.35470588 26.1 C7.10470588 26.2 15.3 26.4 20.4 26.5 L21.3208824 26.5 L21.2205882 27.5 C21.2044118 27.6 20.8 31.3 20.7 32.1 C20.4320588 33.3 17.7 35.4 14.2 35.7 C14.0697059 35.7 14 35.7 13.8 35.7 L13.8361765 35.7 Z M7.79411765 30.7 C8.97617647 31.8 11.7 34 13.8 34 C13.9079412 34 14 34 14.1 34 C16.8320588 33.8 18.7 32.2 18.9 31.7 C19.0335294 31.2 19.2 29.5 19.4 28.3 C16.0523529 28.2 10.6 28.1 7.8 27.9 L7.79411765 30.7 L7.79411765 30.7 Z M32.2138235 34.8 C30.5761765 34.8 28.9 34.5 27.1 33.7 C24.5176471 32.6 23.3 27.9 23.2 27.3 L22.8205882 25.9 L24.22 26.3 C24.4052941 26.3 24.8 26.3 25.5 26.3 C29.8952941 26.3 40.4 24.4 40.5 24.4 L41.6282353 24.2 L41.1779412 28.9 C41.1794118 29.3 41 30 38.6 32.3 C36.8376471 34 34.7 34.8 32.2 34.8 L32.2138235 34.8 Z M25.2373529 28.1 C25.7955882 29.7 26.7 31.6 27.8 32.1 C29.3355882 32.7 30.8 33.1 32.2 33.1 C34.205 33.1 36 32.4 37.4 31 C38.9597059 29.5 39.3 28.9 39.4 28.8 L39.6520588 26.3 C36.7614706 26.8 29.2 28.1 25.5 28.1 C25.4023529 28.1 25.3 28.1 25.2 28.1 L25.2373529 28.1 Z" id="Fill-3"/><path d="M23.12 46 L18.0297059 42.7 L18.9032353 35.4 C18.9605882 34.9 19.4 34.5 19.9 34.6 C20.3676471 34.6 20.7 35.1 20.7 35.6 L19.9114706 41.8 L23.0511765 43.8 C24.305 42.9 25.6 41.8 25.9 41.3 C25.7926471 40.6 25.1 37.4 24.4 34.6 C24.3232353 34.1 24.6 33.7 25.1 33.5 C25.5661765 33.4 26 33.7 26.2 34.2 C26.5032353 35.7 27.6 40.6 27.6 41.4 C27.6470588 41.7 27.6 42.7 23.6 45.6 L23.12 46" id="Fill-4"/><path d="M21.7917647 25.4 L20.9117647 24.5 C15.8852941 19.3 5.2 15 5 15 C4.58970588 14.8 4.4 14.3 4.5 13.8 C4.72705882 13.4 5.2 13.2 5.7 13.3 C6.12470588 13.5 15.9 17.4 21.4 22.5 C22.8052941 20.3 27.1 15.5 37 12.6 C37.5041176 12.5 38 12.7 38.1 13.2 C38.2620588 13.7 38 14.1 37.5 14.3 C31.2938235 16.1 27.5 18.7 25.4 20.6 C23.1502941 22.6 22.3 24.2 22.3 24.2 L21.7917647 25.4" id="Fill-5"/><path d="M16.7635294 68.7 C16.3317647 68.7 16 68.4 15.9 68 L11.6267647 38.3 C11.5573529 37.9 11.9 37.4 12.4 37.3 C12.8567647 37.3 13.3 37.6 13.4 38.1 L17.6379412 67.7 C17.7073529 68.2 17.4 68.6 16.9 68.7 C16.8476471 68.7 16.8 68.7 16.8 68.7" id="Fill-6"/><path d="M32.6476471 68.3 C32.6385294 68.3 32.6 68.3 32.6 68.3 C32.1332353 68.3 31.8 67.9 31.8 67.4 L32.6476471 38.2 C32.6620588 37.7 33.1 37.3 33.6 37.3 C34.0432353 37.3 34.4 37.8 34.4 38.2 L33.5288235 67.5 C33.5147059 67.9 33.1 68.3 32.6 68.3" id="Fill-7"/><path d="M31.3352941 25.9 C30.9264706 25.9 30.6 25.6 30.5 25.2 C30.3726471 24.7 30.7 24.3 31.2 24.2 C35.2985294 23.3 42.3 21.6 43.5 20.9 C43.9194118 20.6 43.3 17.9 41.7 14.9 C41.4185294 14.5 41.6 13.9 42 13.7 C42.4352941 13.5 43 13.6 43.2 14 C44.3158824 16.1 46.7 21 44.4 22.4 C42.5938235 23.6 32.6 25.7 31.5 25.9 C31.4561765 25.9 31.4 25.9 31.3 25.9" id="Fill-8"/><path d="M10.6938235 26.2 C9.91882353 26.2 7.6 25.4 5.7 24.7 C3.7 23.9 2.6 22.1 2.5 19.3 C2.47911765 17.4 3 15.8 3 15.7 C3.11 15.2 3.6 14.9 4.1 15.1 C4.53529412 15.2 4.8 15.7 4.7 16.2 C4.65382353 16.2 3.1 21.8 6.3 23 C9.87529412 24.4 10.7 24.5 10.7 24.5 C10.6314706 24.5 10.6 24.5 10.6 24.5 L10.7744118 26.2 C10.75 26.2 10.7 26.2 10.7 26.2" id="Fill-9"/><path d="M33.0882353 7.2 C32.9879412 7.2 32.9 7.2 32.8 7.2 C31.3914706 6.7 29.7 6.1 28 5.6 C24.3002941 4.3 22.5 3.7 21.9 3.3 C21.5170588 3.3 20.5 3.9 19.8 4.2 C19.1814706 4.6 18.5 4.9 18 5.1 C17.5002941 5.3 17 5.1 16.8 4.6 C16.6497059 4.2 16.9 3.7 17.3 3.5 C17.8052941 3.3 18.4 3 19 2.7 C20.5488235 1.8 21.9 1.1 22.9 1.8 C23.3241176 2.1 26.2 3.1 28.6 3.9 C30.2323529 4.4 32 5 33.4 5.5 C33.8479412 5.7 34.1 6.2 33.9 6.7 C33.7873529 7 33.4 7.2 33.1 7.2" id="Fill-10"/></g></g></g></g></g></svg>