<?xml version="1.0" encoding="UTF-8" standalone="no"?>
<svg width="68px" height="85px" viewBox="0 0 68 85" version="1.1" xmlns="http://www.w3.org/2000/svg" xmlns:xlink="http://www.w3.org/1999/xlink" xmlns:sketch="http://www.bohemiancoding.com/sketch/ns">
    <!-- Generator: Sketch 3.0.4 (8053) - http://www.bohemiancoding.com/sketch -->
    <title>about_likes_reddit</title>
    <desc>Created with Sketch.</desc>
    <defs></defs>
    <g id="Page-1" stroke="none" stroke-width="1" fill="none" fill-rule="evenodd" sketch:type="MSPage">
        <g id="me-+-icons" sketch:type="MSLayerGroup" transform="translate(-286.000000, -206.000000)">
            <g id="icons" transform="translate(0.000000, 34.000000)">
                <g id="about_likes_reddit" transform="translate(288.000000, 174.000000)">
                    <text id="REDDIT" sketch:type="MSTextLayer" font-family="Avenir Next" font-size="12" font-weight="420" sketch:alignment="middle" fill="#FFFFFF">
                        <tspan x="11.038" y="83">REDDIT</tspan>
                    </text>
                    <g id="Group" sketch:type="MSShapeGroup">
                        <path d="M12.6151835,26.4621839 C12.6151835,30.0037208 9.76221054,32.8714925 6.23939273,32.8714925 C2.72034868,32.8714925 -0.130737404,30.0037208 -0.130737404,26.4621839 C-0.130737404,22.9206471 2.72034868,20.0490794 6.23939273,20.0490794 C9.76221054,20.0490794 12.6151835,22.9206471 12.6151835,26.4621839" id="Fill-1"></path>
                        <path d="M53.4053572,22.4437079 C48.1302387,18.6843681 40.5679993,16.3291372 32.1671054,16.3291372 C23.8607344,16.3291372 16.3736152,18.6327568 11.1073987,22.3199656 C9.93812579,20.930933 8.19161337,20.0490794 6.23939273,20.0490794 C2.72034868,20.0490794 -0.130737404,22.9206471 -0.130737404,26.4621839 C-0.130737404,29.0767943 1.42322598,31.3241741 3.65268686,32.3214799 L3.65268638,32.321482 C3.42275762,33.2848619 3.30339673,34.2723143 3.30339673,35.2780674 C3.30339673,45.7432518 16.226685,54.2250997 32.1671054,54.2250997 C48.1112996,54.2250997 61.0345879,45.7432518 61.0345879,35.2780674 C61.0345879,34.3088932 60.9237514,33.3567127 60.7099434,32.4266906 C63.0742771,31.4894612 64.7460944,29.1732328 64.7460944,26.4621839 C64.7460944,22.9206471 61.8931215,20.0490794 58.3703036,20.0490794 C56.3628766,20.0490794 54.5728094,20.9835146 53.4053533,22.4437051 Z" id="Stroke-2" stroke="#FFFFFF" stroke-width="2"></path>
                        <path d="M49.9755439,3.96222725 L37.229623,0.944519018 L32.5444828,15.8375734" id="Stroke-5" stroke="#FFFFFF" stroke-width="2" stroke-linecap="round" stroke-linejoin="round"></path>
                        <path d="M61.0345879,35.2780674 C61.0345879,45.7432518 48.1112996,54.2250997 32.1671054,54.2250997 C16.226685,54.2250997 3.30339673,45.7432518 3.30339673,35.2780674 C3.30339673,24.812883 16.226685,16.3291372 32.1671054,16.3291372 C48.1112996,16.3291372 61.0345879,24.812883 61.0345879,35.2780674" id="Fill-8"></path>
                        <path d="M25.5214898,31.5790024 C25.5214898,33.454157 24.0082065,34.9725007 22.1477361,34.9725007 C20.2816049,34.9725007 18.7720954,33.454157 18.7720954,31.5790024 C18.7720954,29.7019499 20.2816049,28.1855041 22.1477361,28.1855041 C24.0082065,28.1855041 25.5214898,29.7019499 25.5214898,31.5790024" id="Fill-10" fill="#FFFFFF"></path>
                        <path d="M45.8583567,31.5790024 C45.8583567,33.454157 44.3488472,34.9725007 42.4846029,34.9725007 C40.6241325,34.9725007 39.1127361,33.454157 39.1127361,31.5790024 C39.1127361,29.7019499 40.6241325,28.1855041 42.4846029,28.1855041 C44.3488472,28.1855041 45.8583567,29.7019499 45.8583567,31.5790024" id="Fill-12" fill="#FFFFFF"></path>
                        <path d="M22.3364248,43.9990544 C24.8497581,46.5289947 28.9084518,47.0148647 32.2708842,47.0148647 M42.2789323,43.9990544 C39.7618252,46.5289947 35.7087921,47.0148647 32.3444728,47.0148647" id="Stroke-14" stroke="#FFFFFF" stroke-width="2" stroke-linecap="round"></path>
                        <path d="M60.2005839,4.99849687 C60.2005839,7.78845354 57.9514147,10.0526837 55.1795779,10.0526837 C52.4001935,10.0526837 50.1529112,7.78845354 50.1529112,4.99849687 C50.1529112,2.20664227 52.4001935,-0.0537920077 55.1795779,-0.0537920077 C57.9514147,-0.0537920077 60.2005839,2.20664227 60.2005839,4.99849687 L60.2005839,4.99849687 Z" id="Stroke-8" stroke="#FFFFFF" stroke-width="2"></path>
                    </g>
                </g>
            </g>
        </g>
    </g>
</svg>