<?xml version="1.0" encoding="UTF-8" standalone="no"?>
<svg width="97px" height="76px" viewBox="0 0 97 76" version="1.1" xmlns="http://www.w3.org/2000/svg" xmlns:xlink="http://www.w3.org/1999/xlink" xmlns:sketch="http://www.bohemiancoding.com/sketch/ns">
    <!-- Generator: Sketch 3.0.4 (8053) - http://www.bohemiancoding.com/sketch -->
    <title>about_likes_auth</title>
    <desc>Created with Sketch.</desc>
    <defs></defs>
    <g id="Page-1" stroke="none" stroke-width="1" fill="none" fill-rule="evenodd" sketch:type="MSPage">
        <g id="me-+-icons" sketch:type="MSLayerGroup" transform="translate(-544.000000, -873.000000)" fill="#FFFFFF">
            <g id="icons" transform="translate(72.000000, 34.000000)">
                <g id="about_likes_auth" transform="translate(472.000000, 839.000000)">
                    <g id="PC-MASTER-RACE-+-Group" transform="translate(6.000000, 63.000000)" font-weight="420" font-family="Avenir Next" font-size="12" sketch:alignment="middle" sketch:type="MSTextLayer">
                        <text id="AUTHENTICITY">
                            <tspan x="0.014" y="12">AUTHENTICITY</tspan>
                        </text>
                    </g>
                    <g id="Imported-EPS" sketch:type="MSShapeGroup">
                        <g id="Imported-Layers">
                            <path d="M22.7332727,14.4444444 C23.0088409,11.3411111 24.3359773,8.46 26.5482386,6.23 C29.0470909,3.71222222 32.3682386,2.32555556 35.9010227,2.32555556 C39.4338068,2.32555556 42.7560568,3.71222222 45.2549091,6.23 L47.3977273,8.39111111 L49.5405455,6.23 C52.0393977,3.71222222 55.3616477,2.32555556 58.8944318,2.32555556 C62.4272159,2.32555556 65.7483636,3.71222222 68.2472159,6.23 C70.4594773,8.46 71.7866136,11.3411111 72.0621818,14.4444444 L74.2667273,14.4444444 C73.9856477,10.7477778 72.43475,7.30888889 69.8058295,4.65888889 C66.8914205,1.72111111 63.0158295,0.103333333 58.8944318,0.103333333 C54.7719318,0.103333333 50.8974432,1.72111111 47.9819318,4.65888889 L47.3977273,5.24888889 L46.8135227,4.65888889 C43.8980114,1.72111111 40.0235227,0.103333333 35.9010227,0.103333333 C31.779625,0.103333333 27.9040341,1.72111111 24.989625,4.65888889 C22.3607045,7.30888889 20.8098068,10.7477778 20.527625,14.4444444 L22.7332727,14.4444444" id="Fill-1"></path>
                            <path d="M58.963875,34.4444444 L47.3977273,46.1033333 L35.8315795,34.4444444 L32.7143523,34.4444444 L47.3977273,49.2455556 L62.0811023,34.4444444 L58.963875,34.4444444" id="Fill-2"></path>
                            <path d="M96.6064886,32.0833333 L0.547829545,32.0833333 L9.60189773,24.4444444 L0.547829545,16.8055556 L96.6064886,16.8055556 L87.5513182,24.4444444 L96.6064886,32.0833333 L96.6064886,32.0833333 Z M6.61694318,29.8611111 L90.537375,29.8611111 L84.1166364,24.4444444 L90.537375,19.0277778 L6.61694318,19.0277778 L13.0376818,24.4444444 L6.61694318,29.8611111 L6.61694318,29.8611111 Z" id="Fill-3"></path>
                        </g>
                    </g>
                </g>
            </g>
        </g>
    </g>
</svg>