<svg xmlns="http://www.w3.org/2000/svg" xmlns:xlink="http://www.w3.org/1999/xlink" xmlns:sketch="http://www.bohemiancoding.com/sketch/ns" width="101px" height="84px" viewBox="0 0 101 84" version="1.1"><!-- Generator: Sketch 3.0.4 (8053) - http://www.bohemiancoding.com/sketch --><title>about_likes_pcgaming</title><desc>Created with Sketch.</desc><defs/><g id="Page-1" stroke="none" stroke-width="1" fill="none" fill-rule="evenodd" sketch:type="MSPage"><g id="me-+-icons" sketch:type="MSLayerGroup" transform="translate(-73.000000, -621.000000)"><g id="icons" transform="translate(72.000000, 34.000000)"><g id="about_likes_pcgaming" transform="translate(1.000000, 587.000000)"><text id="PC-MASTER-RACE" sketch:type="MSTextLayer" font-family="Avenir Next" font-size="12" font-weight="420" sketch:alignment="middle" fill="#FFFFFF"><tspan x="0.3" y="83">PC MASTER RACE</tspan></text><g id="Group" transform="translate(8.000000, 0.000000)" sketch:type="MSShapeGroup"><g id="Rectangle-14-+-W" transform="translate(29.940594, 0.000000)"><rect id="Rectangle-14" stroke="#FFFFFF" stroke-width="2" x="0" y="0" width="24.1" height="24.1"/><path d="M9.77040594 14.2 L9.79410891 14.2 L11.7614554 7.5 L13.0532673 7.5 L15.0087624 14.2 L15.0324653 14.2 L16.881297 7.5 L18.125703 7.5 L15.6605941 15.9 L14.4398911 15.9 L12.4014356 9.1 L12.3777327 9.1 L10.3392772 15.9 L9.11857426 15.9 L6.65346535 7.5 L7.92157426 7.5 L9.77040594 14.2 Z" id="W" fill="#FFFFFF"/></g><g id="Rectangle-14-+-A" transform="translate(0.000000, 29.907692)"><rect id="Rectangle-14" stroke="#FFFFFF" stroke-width="2" x="0" y="0" width="24.1" height="24.1"/><path d="M9.62049505 15.9 L8.31683168 15.9 L11.9552376 7.5 L13.0218713 7.5 L16.6247228 15.9 L15.2973564 15.9 L14.4440495 13.8 L10.4619505 13.8 L9.62049505 15.9 Z M10.8767525 12.8 L14.017396 12.8 L12.453 8.8 L10.8767525 12.8 Z" id="A" fill="#FFFFFF"/></g><g id="Rectangle-14-+-S" transform="translate(29.940594, 29.907692)"><rect id="Rectangle-14" stroke="#FFFFFF" stroke-width="2" x="0" y="0" width="24.1" height="24.1"/><path d="M13.9009604 9.2 C13.7350388 9 13.5 8.8 13.2 8.7 C12.9409887 8.5 12.6 8.5 12.3 8.5 C12.0758307 8.5 11.9 8.5 11.7 8.5 C11.4970832 8.6 11.3 8.7 11.2 8.8 C11.0052467 8.9 10.9 9 10.8 9.2 C10.6793312 9.4 10.6 9.6 10.6 9.8 C10.6299505 10 10.7 10.2 10.8 10.4 C10.8571044 10.5 11 10.7 11.1 10.8 C11.2877087 10.9 11.5 11 11.7 11.1 C11.8881842 11.1 12.1 11.2 12.3 11.3 C12.6328529 11.4 12.9 11.5 13.2 11.6 C13.5059124 11.7 13.8 11.8 14 12 C14.2446547 12.2 14.4 12.4 14.6 12.7 C14.7384661 13 14.8 13.3 14.8 13.7 C14.8135248 14.2 14.7 14.6 14.6 14.9 C14.4085982 15.2 14.2 15.5 13.9 15.7 C13.6560284 15.9 13.3 16 13 16.1 C12.642726 16.2 12.3 16.3 11.9 16.3 C11.3805419 16.3 10.9 16.2 10.4 16 C9.88132921 15.8 9.5 15.5 9.1 15.1 L10.0610792 14.3 C10.2586049 14.6 10.5 14.8 10.9 15 C11.186972 15.2 11.5 15.3 11.9 15.3 C12.1311396 15.3 12.3 15.3 12.5 15.2 C12.7237139 15.1 12.9 15.1 13.1 14.9 C13.2274018 14.8 13.4 14.7 13.5 14.5 C13.5651688 14.3 13.6 14.1 13.6 13.8 C13.6165248 13.6 13.6 13.4 13.5 13.2 C13.3498658 13 13.2 12.9 13 12.8 C12.8422268 12.7 12.6 12.6 12.4 12.5 C12.1489146 12.4 11.9 12.3 11.6 12.2 C11.3568402 12.1 11.1 12 10.8 11.9 C10.5706918 11.8 10.3 11.7 10.1 11.5 C9.92676135 11.3 9.8 11.1 9.6 10.8 C9.50800927 10.6 9.4 10.3 9.4 9.9 C9.44480198 9.4 9.5 9.1 9.7 8.8 C9.86948105 8.5 10.1 8.2 10.4 8 C10.6358776 7.8 10.9 7.7 11.3 7.6 C11.6314027 7.5 12 7.5 12.3 7.5 C12.8145767 7.5 13.3 7.6 13.7 7.7 C14.1261407 7.9 14.5 8.1 14.7 8.4 L13.9009604 9.2 Z" id="S" fill="#FFFFFF"/></g><g id="Rectangle-14-+-D" transform="translate(59.881188, 29.907692)"><rect id="Rectangle-14" stroke="#FFFFFF" stroke-width="2" x="0" y="0" width="24.1" height="24.1"/><path d="M8.31683168 7.5 L11.1967426 7.5 C11.7340126 7.5 12.3 7.6 12.8 7.7 C13.3458146 7.9 13.8 8.1 14.3 8.5 C14.7008339 8.8 15.1 9.2 15.3 9.8 C15.5896944 10.3 15.7 10.9 15.7 11.7 C15.7240099 12.4 15.6 13 15.3 13.5 C15.0524244 14.1 14.7 14.5 14.3 14.8 C13.8317206 15.2 13.3 15.4 12.8 15.6 C12.2712745 15.8 11.7 15.9 11.2 15.9 L8.31683168 15.9 L8.31683168 7.5 Z M9.49012871 14.8 L10.9597129 14.8 C11.4653788 14.8 11.9 14.8 12.4 14.6 C12.79472 14.5 13.2 14.3 13.5 14 C13.7902441 13.7 14 13.4 14.2 13 C14.3808425 12.6 14.5 12.2 14.5 11.7 C14.4677525 11.1 14.4 10.7 14.2 10.3 C14.0331972 9.9 13.8 9.6 13.5 9.3 C13.1660628 9 12.8 8.8 12.4 8.7 C11.9335077 8.6 11.5 8.5 11 8.5 L9.49012871 8.5 L9.49012871 14.8 Z" id="D" fill="#FFFFFF"/></g></g></g></g></g></g></svg>