<?xml version="1.0" encoding="UTF-8" standalone="no"?>
<svg width="111px" height="86px" viewBox="0 0 111 86" version="1.1" xmlns="http://www.w3.org/2000/svg" xmlns:xlink="http://www.w3.org/1999/xlink" xmlns:sketch="http://www.bohemiancoding.com/sketch/ns">
    <!-- Generator: Sketch 3.0.4 (8053) - http://www.bohemiancoding.com/sketch -->
    <title>about_likes_auth</title>
    <desc>Created with Sketch.</desc>
    <defs></defs>
    <g id="Page-1" stroke="none" stroke-width="1" fill="none" fill-rule="evenodd" sketch:type="MSPage">
        <g id="me-+-icons" sketch:type="MSLayerGroup" transform="translate(-546.000000, -863.000000)" fill="#FFFFFF">
            <g id="icons" transform="translate(0.000000, 34.000000)">
                <g id="about_likes_auth" transform="translate(546.000000, 829.000000)">
                    <g id="PC-MASTER-RACE-+-Group" transform="translate(13.000000, 73.000000)" font-weight="420" font-family="Avenir Next" font-size="12" sketch:alignment="middle" sketch:type="MSTextLayer">
                        <text id="AUTHENTICITY">
                            <tspan x="0.014" y="12">AUTHENTICITY</tspan>
                        </text>
                    </g>
                    <g id="Imported-EPS" sketch:type="MSShapeGroup">
                        <g id="Imported-Layers">
                            <path d="M26.0143636,16.4666667 C26.3297045,12.9288667 27.8483864,9.6444 30.3799432,7.1022 C33.2394545,4.23193333 37.0399432,2.65113333 41.0826136,2.65113333 C45.1252841,2.65113333 48.9270341,4.23193333 51.7865455,7.1022 L54.2386364,9.56586667 L56.6907273,7.1022 C59.5502386,4.23193333 63.3519886,2.65113333 67.3946591,2.65113333 C71.4373295,2.65113333 75.2378182,4.23193333 78.0973295,7.1022 C80.6288864,9.6444 82.1475682,12.9288667 82.4629091,16.4666667 L84.9856364,16.4666667 C84.6639886,12.2524667 82.88925,8.33213333 79.8808977,5.31113333 C76.5458523,1.96206667 72.1108977,0.1178 67.3946591,0.1178 C62.6771591,0.1178 58.2434659,1.96206667 54.9071591,5.31113333 L54.2386364,5.98373333 L53.5701136,5.31113333 C50.2338068,1.96206667 45.8001136,0.1178 41.0826136,0.1178 C36.366375,0.1178 31.9314205,1.96206667 28.596375,5.31113333 C25.5880227,8.33213333 23.8132841,12.2524667 23.490375,16.4666667 L26.0143636,16.4666667" id="Fill-1"></path>
                            <path d="M67.474125,39.2666667 L54.2386364,52.5578 L41.0031477,39.2666667 L37.4360114,39.2666667 L54.2386364,56.1399333 L71.0412614,39.2666667 L67.474125,39.2666667" id="Fill-2"></path>
                            <path d="M110.549693,36.575 L0.626897727,36.575 L10.9877386,27.8666667 L0.626897727,19.1583333 L110.549693,19.1583333 L100.187591,27.8666667 L110.549693,36.575 L110.549693,36.575 Z M7.57196591,34.0416667 L103.604625,34.0416667 L96.2571818,27.8666667 L103.604625,21.6916667 L7.57196591,21.6916667 L14.9194091,27.8666667 L7.57196591,34.0416667 L7.57196591,34.0416667 Z" id="Fill-3"></path>
                        </g>
                    </g>
                </g>
            </g>
        </g>
    </g>
</svg>