<?xml version="1.0" encoding="UTF-8" standalone="no"?>
<svg width="101px" height="84px" viewBox="0 0 101 84" version="1.1" xmlns="http://www.w3.org/2000/svg" xmlns:xlink="http://www.w3.org/1999/xlink" xmlns:sketch="http://www.bohemiancoding.com/sketch/ns">
    <!-- Generator: Sketch 3.0.4 (8053) - http://www.bohemiancoding.com/sketch -->
    <title>about_likes_pcgaming</title>
    <desc>Created with Sketch.</desc>
    <defs></defs>
    <g id="Page-1" stroke="none" stroke-width="1" fill="none" fill-rule="evenodd" sketch:type="MSPage">
        <g id="me-+-icons" sketch:type="MSLayerGroup" transform="translate(-73.000000, -621.000000)">
            <g id="icons" transform="translate(72.000000, 34.000000)">
                <g id="about_likes_pcgaming" transform="translate(1.000000, 587.000000)">
                    <text id="PC-MASTER-RACE" sketch:type="MSTextLayer" font-family="Avenir Next" font-size="12" font-weight="420" sketch:alignment="middle" fill="#FFFFFF">
                        <tspan x="0.28" y="83">PC MASTER RACE</tspan>
                    </text>
                    <g id="Group" transform="translate(8.000000, 0.000000)" sketch:type="MSShapeGroup">
                        <g id="Rectangle-14-+-W" transform="translate(29.940594, 0.000000)">
                            <rect id="Rectangle-14" stroke="#FFFFFF" stroke-width="2" x="0" y="0" width="24.1188119" height="24.0923077"></rect>
                            <path d="M9.77040594,14.1538154 L9.79410891,14.1538154 L11.7614554,7.47692308 L13.0532673,7.47692308 L15.0087624,14.1538154 L15.0324653,14.1538154 L16.881297,7.47692308 L18.125703,7.47692308 L15.6605941,15.8585538 L14.4398911,15.8585538 L12.4014356,9.12246923 L12.3777327,9.12246923 L10.3392772,15.8585538 L9.11857426,15.8585538 L6.65346535,7.47692308 L7.92157426,7.47692308 L9.77040594,14.1538154 Z" id="W" fill="#FFFFFF"></path>
                        </g>
                        <g id="Rectangle-14-+-A" transform="translate(0.000000, 29.907692)">
                            <rect id="Rectangle-14" stroke="#FFFFFF" stroke-width="2" x="0" y="0" width="24.1188119" height="24.0923077"></rect>
                            <path d="M9.62049505,15.8585538 L8.31683168,15.8585538 L11.9552376,7.47692308 L13.0218713,7.47692308 L16.6247228,15.8585538 L15.2973564,15.8585538 L14.4440495,13.7986615 L10.4619505,13.7986615 L9.62049505,15.8585538 Z M10.8767525,12.7687154 L14.017396,12.7687154 L12.453,8.83834615 L10.8767525,12.7687154 Z" id="A" fill="#FFFFFF"></path>
                        </g>
                        <g id="Rectangle-14-+-S" transform="translate(29.940594, 29.907692)">
                            <rect id="Rectangle-14" stroke="#FFFFFF" stroke-width="2" x="0" y="0" width="24.1188119" height="24.0923077"></rect>
                            <path d="M13.9009604,9.24085385 C13.7350388,9.01197578 13.5098628,8.82453535 13.2254257,8.67852692 C12.9409887,8.5325185 12.6210018,8.45951538 12.2654554,8.45951538 C12.0758307,8.45951538 11.8842336,8.48516513 11.6906584,8.53646538 C11.4970832,8.58776564 11.3212879,8.67063404 11.1632673,8.78507308 C11.0052467,8.89951211 10.8768569,9.04157223 10.7780941,9.21125769 C10.6793312,9.38094316 10.6299505,9.58416805 10.6299505,9.82093846 C10.6299505,10.0498165 10.6753807,10.2412031 10.7662426,10.3951038 C10.8571044,10.5490046 10.9795685,10.6792264 11.1336386,10.7857731 C11.2877087,10.8923198 11.4694296,10.9830804 11.6788069,11.0580577 C11.8881842,11.133035 12.111385,11.2099842 12.3484158,11.2889077 C12.6328529,11.3757235 12.9212362,11.4743764 13.2135743,11.5848692 C13.5059124,11.6953621 13.7705929,11.8413683 14.0076238,12.0228923 C14.2446547,12.2044163 14.438227,12.4313179 14.5883465,12.7036038 C14.7384661,12.9758898 14.8135248,13.3211748 14.8135248,13.7394692 C14.8135248,14.1735483 14.7325404,14.5504022 14.5705693,14.8700423 C14.4085982,15.1896824 14.1932984,15.454072 13.9246634,15.6632192 C13.6560284,15.8723664 13.3459176,16.0282379 12.9943218,16.1308385 C12.642726,16.233439 12.2812593,16.2847385 11.9099109,16.2847385 C11.3805419,16.2847385 10.8689579,16.1821395 10.3751436,15.9769385 C9.88132921,15.7717374 9.47245707,15.4678866 9.14851485,15.0653769 L10.0610792,14.2958769 C10.2586049,14.5878938 10.5232855,14.8246606 10.8551287,15.0061846 C11.186972,15.1877086 11.5464634,15.2784692 11.9336139,15.2784692 C12.1311396,15.2784692 12.3286624,15.2508464 12.5261881,15.1956 C12.7237139,15.1403536 12.9034596,15.0535391 13.0654307,14.9351538 C13.2274018,14.8167686 13.3597421,14.6687893 13.4624554,14.4912115 C13.5651688,14.3136337 13.6165248,14.0985705 13.6165248,13.8460154 C13.6165248,13.5934603 13.5631936,13.3823432 13.4565297,13.2126577 C13.3498658,13.0429722 13.2056742,12.8989391 13.0239505,12.7805538 C12.8422268,12.6621686 12.6308774,12.5615427 12.389896,12.4786731 C12.1489146,12.3958034 11.8941103,12.310962 11.6254752,12.2241462 C11.3568402,12.1452227 11.0921597,12.0485429 10.8314257,11.9341038 C10.5706918,11.8196648 10.3376149,11.6736586 10.1321881,11.4960808 C9.92676135,11.318503 9.76084222,11.0994936 9.63442574,10.8390462 C9.50800927,10.5785987 9.44480198,10.2550173 9.44480198,9.86829231 C9.44480198,9.44999791 9.52973677,9.0909015 9.69960891,8.79099231 C9.86948105,8.49108312 10.0907066,8.24247791 10.3632921,8.04516923 C10.6358776,7.84786055 10.9440131,7.70382738 11.2877079,7.61306538 C11.6314027,7.52230339 11.9770676,7.47692308 12.3247129,7.47692308 C12.8145767,7.47692308 13.2728295,7.56373759 13.6994851,7.73736923 C14.1261407,7.91100087 14.4698304,8.14382162 14.7305644,8.43583846 L13.9009604,9.24085385 Z" id="S" fill="#FFFFFF"></path>
                        </g>
                        <g id="Rectangle-14-+-D" transform="translate(59.881188, 29.907692)">
                            <rect id="Rectangle-14" stroke="#FFFFFF" stroke-width="2" x="0" y="0" width="24.1188119" height="24.0923077"></rect>
                            <path d="M8.31683168,7.47692308 L11.1967426,7.47692308 C11.7340126,7.47692308 12.2712745,7.55584536 12.8085446,7.71369231 C13.3458146,7.87153925 13.8317206,8.12014446 14.2662772,8.45951538 C14.7008339,8.79888631 15.0524244,9.23295889 15.3210594,9.76174615 C15.5896944,10.2905334 15.7240099,10.9258578 15.7240099,11.6677385 C15.7240099,12.3859421 15.5896944,13.0074551 15.3210594,13.5322962 C15.0524244,14.0571372 14.7008339,14.4912098 14.2662772,14.8345269 C13.8317206,15.177844 13.3458146,15.4343415 12.8085446,15.6040269 C12.2712745,15.7737124 11.7340126,15.8585538 11.1967426,15.8585538 L8.31683168,15.8585538 L8.31683168,7.47692308 Z M9.49012871,14.8286077 L10.9597129,14.8286077 C11.4653788,14.8286077 11.9335077,14.7575776 12.3641139,14.6155154 C12.79472,14.4734531 13.1660628,14.2682552 13.4781535,13.9999154 C13.7902441,13.7315756 14.0331972,13.400102 14.2070198,13.0054846 C14.3808425,12.6108673 14.4677525,12.1649563 14.4677525,11.6677385 C14.4677525,11.1468435 14.3808425,10.6890943 14.2070198,10.2944769 C14.0331972,9.89985957 13.7902441,9.57035901 13.4781535,9.30596538 C13.1660628,9.04157175 12.79472,8.84031992 12.3641139,8.70220385 C11.9335077,8.56408777 11.4653788,8.49503077 10.9597129,8.49503077 L9.49012871,8.49503077 L9.49012871,14.8286077 Z" id="D" fill="#FFFFFF"></path>
                        </g>
                    </g>
                </g>
            </g>
        </g>
    </g>
</svg>