<?xml version="1.0" encoding="UTF-8" standalone="no"?>
<svg width="50px" height="92px" viewBox="0 0 50 92" version="1.1" xmlns="http://www.w3.org/2000/svg" xmlns:xlink="http://www.w3.org/1999/xlink" xmlns:sketch="http://www.bohemiancoding.com/sketch/ns">
    <!-- Generator: Sketch 3.0.4 (8053) - http://www.bohemiancoding.com/sketch -->
    <title>about_likes_music</title>
    <desc>Created with Sketch.</desc>
    <defs></defs>
    <g id="Page-1" stroke="none" stroke-width="1" fill="none" fill-rule="evenodd" sketch:type="MSPage">
        <g id="me-+-icons" sketch:type="MSLayerGroup" transform="translate(-992.000000, -573.000000)" fill="#FFFFFF">
            <g id="icons" transform="translate(0.000000, 34.000000)">
                <g id="about_likes_music" transform="translate(992.000000, 539.000000)">
                    <text id="MUSIC" sketch:type="MSTextLayer" font-family="Avenir Next" font-size="12" font-weight="420" sketch:alignment="middle">
                        <tspan x="6.022" y="91">MUSIC</tspan>
                    </text>
                    <g id="Group" sketch:type="MSShapeGroup">
                        <path id="Fill-1" d="M38.7264706,42.1839574 C38.7117647,42.2045106 38.6970588,42.2250638 38.6823529,42.2426809 L38.6941176,42.1545957 L38.7264706,42.1839574"></path>
                        <path id="Fill-2" d="M38.7264706,42.1839574 C38.7117647,42.2045106 38.6970588,42.2250638 38.6823529,42.2426809 L38.6941176,42.1545957 L38.7264706,42.1839574"></path>
                        <path d="M16.6605882,68.7838979 L12.9461765,66.630217 L12.8638235,66.2496894 C12.8314706,66.0987702 9.63735294,51.3380553 8.21235294,45.8952766 C6.45235294,44.2698128 5.14411765,42.9905234 4.32176471,42.0905872 C2.41,40.0070809 1.51470588,37.3416255 0.299705882,26.5238936 C-0.814411765,16.5943532 3.41029412,12.2946255 4.28029412,11.5238809 C5.47529412,9.43303404 7.69,7.60849787 10.5529412,6.35563404 C13.2617647,2.54565957 19.18,0.096893617 25.7352941,0.096893617 C35.8044118,0.096893617 39.9067647,5.66563404 42.3555882,10.5173617 C42.4364706,10.6776766 42.47,10.8335872 42.4791176,10.9745234 C44.1985294,12.1636723 47.28,14.8212 47.8976471,18.9062936 C48.2729412,19.3699149 49.0770588,20.5059191 49.5294118,22.1983277 C50.0588235,24.1799489 50.1997059,27.3474894 47.9014706,31.235566 C47.61,32.962034 46.7402941,37.833434 46.0391176,38.935966 C45.8835294,39.1805489 45.4152941,39.9166468 39.2876471,44.4947234 L36.6114706,65.7816638 L32.7614706,68.4256851 L29.4991176,67.1516809 L29.7932353,48.6611489 C26.3697059,49.4586128 22.2623529,49.5886851 17.7947059,49.0504851 L20.1832353,67.6567021 L16.6605882,68.7838979 L16.6605882,68.7838979 Z M14.5064706,65.4974426 L16.8688235,66.867166 L18.2461765,66.4264468 L15.7508824,46.9898809 L16.8994118,47.1551872 C19.025,47.4608426 21.0835294,47.6158723 23.0173529,47.6158723 C25.7832353,47.6158723 28.2835294,47.2975915 30.4479412,46.6701319 L31.5952941,46.3374638 L31.2832353,65.9566596 L32.5326471,66.4443574 L34.9591176,64.7780809 L37.63,43.531366 L37.9308824,43.3073362 C42.4141176,39.9671489 44.2994118,38.3543106 44.5514706,37.9881702 C44.9132353,37.4191404 45.6835294,33.8035404 46.1885294,30.781634 L46.2161765,30.616034 L46.3032353,30.4718681 C50.2241176,23.9802894 46.4597059,19.931017 46.4214706,19.8907915 L46.2188235,19.6793872 L46.1832353,19.389 C45.705,15.4944638 42.4497059,13.0330723 41.0723529,12.1554511 L40.6202941,11.8674128 L40.6682353,11.3342043 C40.6738235,11.2725447 40.6838235,11.2091234 40.6958824,11.1451149 C38.3344118,6.52475745 34.6820588,1.85859574 25.7352941,1.85859574 C19.6279412,1.85859574 14.185,4.09419574 11.8688235,7.55388511 L11.7220588,7.77351064 L11.4782353,7.87598298 C8.79882353,9.00464681 6.76382353,10.6512511 5.74852941,12.5124894 L5.68205882,12.6340468 L5.51441176,12.7879021 C5.47029412,12.8228426 0.955,16.5388596 2.05323529,26.3274638 C3.21411765,36.6610213 3.99794118,39.1294596 5.62441176,40.9020255 C6.44294118,41.7978511 7.77970588,43.1006298 9.59823529,44.7751277 L9.78705882,44.9489489 L9.85294118,45.1964681 C11.1291176,49.9962255 13.9841176,63.0930128 14.5064706,65.4974426 L14.5064706,65.4974426 Z M13.8361765,35.7340723 C10.3708824,35.7340723 6.44941176,31.8116426 6.28411765,31.6445745 L6.02941176,31.3870723 L6.02941176,28.2738511 L4.10352941,25.5822638 L6.35470588,26.1010851 C7.10470588,26.2038511 15.3270588,26.4143745 20.3623529,26.5236 L21.3208824,26.5444468 L21.2205882,27.4966468 C21.2044118,27.6496213 20.8229412,31.2602298 20.6711765,32.0685574 C20.4320588,33.3428553 17.7229412,35.4492638 14.1852941,35.7208596 C14.0697059,35.7296681 13.9532353,35.7340723 13.8361765,35.7340723 L13.8361765,35.7340723 Z M7.79411765,30.6542043 C8.97617647,31.7696553 11.7420588,33.9723702 13.8361765,33.9723702 C13.9079412,33.9723702 13.9791176,33.9697277 14.05,33.9641489 C16.8320588,33.7506894 18.7194118,32.1862979 18.9423529,31.7129872 C19.0335294,31.2000383 19.2285294,29.4914809 19.3632353,28.2638681 C16.0523529,28.1901702 10.6258824,28.0598043 7.79411765,27.9403021 L7.79411765,30.6542043 L7.79411765,30.6542043 Z M32.2138235,34.8417702 C30.5761765,34.8417702 28.8552941,34.4550766 27.0991176,33.6928468 C24.5176471,32.5724043 23.2935294,27.854566 23.1623529,27.320183 L22.8205882,25.9269702 L24.22,26.2528851 C24.4052941,26.2960468 24.7758824,26.3474298 25.4885294,26.3474298 C29.8952941,26.3474298 40.3738235,24.4195404 40.4791176,24.4001617 L41.6282353,24.187583 L41.1779412,28.9477021 C41.1794118,29.2671574 41.0176471,29.9991447 38.6473529,32.2508936 C36.8376471,33.9700213 34.6732353,34.8417702 32.2138235,34.8417702 L32.2138235,34.8417702 Z M25.2373529,28.1073702 C25.7955882,29.719034 26.7423529,31.6169745 27.8029412,32.077366 C29.3355882,32.7427021 30.8197059,33.0800681 32.2138235,33.0800681 C34.205,33.0800681 35.9602941,32.3715702 37.4311765,30.9745404 C38.9597059,29.5223106 39.3429412,28.904834 39.4241176,28.7509787 L39.6520588,26.3386213 C36.7614706,26.847166 29.2152941,28.1091319 25.4885294,28.1091319 C25.4023529,28.1091319 25.3185294,28.1085447 25.2373529,28.1073702 L25.2373529,28.1073702 Z" id="Fill-3"></path>
                        <path d="M23.12,45.9956936 L18.0297059,42.6819319 L18.9032353,35.3503149 C18.9605882,34.8670213 19.4,34.5220213 19.8838235,34.5795702 C20.3676471,34.6371191 20.7132353,35.0751957 20.6555882,35.5581957 L19.9114706,41.8037234 L23.0511765,43.8475915 C24.305,42.8836468 25.5938235,41.7555702 25.8744118,41.2975277 C25.7926471,40.5546766 25.1002941,37.4029915 24.4355882,34.6048213 C24.3232353,34.1315106 24.6164706,33.6567319 25.0905882,33.5445702 C25.5661765,33.4332894 26.0402941,33.7251447 26.1526471,34.1984553 C26.5032353,35.6741745 27.6470588,40.5552638 27.6470588,41.4 C27.6470588,41.7423574 27.6470588,42.6513957 23.6132353,45.6316085 L23.12,45.9956936" id="Fill-4"></path>
                        <path d="M21.7917647,25.3690979 L20.9117647,24.4706298 C15.8852941,19.3114851 5.15058824,15.0287872 5.04264706,14.9859191 C4.58970588,14.8068128 4.36794118,14.2947447 4.54735294,13.8428681 C4.72705882,13.3906979 5.23970588,13.1696043 5.69235294,13.3481234 C6.12470588,13.5190085 15.8570588,17.4006255 21.3608824,22.4520128 C22.8052941,20.331217 27.0614706,15.4565872 37.035,12.5864809 C37.5041176,12.4522979 37.9923529,12.7218383 38.1273529,13.188983 C38.2620588,13.6564213 37.9920588,14.1447064 37.5238235,14.2794766 C31.2938235,16.0720085 27.4955882,18.6872553 25.4061765,20.5655234 C23.1502941,22.5929489 22.3479412,24.2201745 22.3402941,24.2363234 L21.7917647,25.3690979" id="Fill-5"></path>
                        <path d="M16.7635294,68.7066766 C16.3317647,68.7066766 15.9547059,68.3898638 15.8914706,67.9509064 L11.6267647,38.3352255 C11.5573529,37.8536936 11.8920588,37.4071021 12.3744118,37.3381021 C12.8567647,37.2693957 13.3041176,37.6029447 13.3732353,38.0847702 L17.6379412,67.7001574 C17.7073529,68.1816894 17.3726471,68.6282809 16.8902941,68.6975745 C16.8476471,68.7034468 16.8052941,68.7066766 16.7635294,68.7066766" id="Fill-6"></path>
                        <path d="M32.6476471,68.3158723 C32.6385294,68.3158723 32.6294118,68.3155787 32.6205882,68.3155787 C32.1332353,68.3008979 31.7505882,67.8948255 31.7652941,67.4085957 L32.6476471,38.1834255 C32.6620588,37.6971957 33.0647059,37.3160809 33.5558824,37.3295872 C34.0432353,37.3442681 34.4258824,37.7500468 34.4111765,38.2365702 L33.5288235,67.4614468 C33.5147059,67.9388681 33.1226471,68.3158723 32.6476471,68.3158723" id="Fill-7"></path>
                        <path d="M31.3352941,25.9114085 C30.9264706,25.9114085 30.5597059,25.6263064 30.4726471,25.2111319 C30.3726471,24.7348851 30.6782353,24.268034 31.155,24.1682043 C35.2985294,23.3008596 42.3147059,21.6486766 43.5029412,20.9072936 C43.9194118,20.6474426 43.3117647,17.9423489 41.6505882,14.880217 C41.4185294,14.4527106 41.5776471,13.918034 42.0061765,13.6863702 C42.4352941,13.4547064 42.9702941,13.6132596 43.2020588,14.040766 C44.3158824,16.0916809 46.6658824,21.011234 44.4382353,22.401217 C42.5938235,23.5519021 32.6455882,25.6562553 31.5173529,25.8923234 C31.4561765,25.9052426 31.3952941,25.9114085 31.3352941,25.9114085" id="Fill-8"></path>
                        <path d="M10.6938235,26.2182383 C9.91882353,26.2182383 7.57794118,25.3896511 5.71470588,24.6793915 C3.7,23.9112894 2.59794118,22.0641447 2.52794118,19.3370298 C2.47911765,17.4340979 2.95529412,15.7560766 2.97558824,15.6853149 C3.11,15.2178766 3.59911765,14.9471617 4.06735294,15.0822255 C4.53529412,15.2164085 4.80588235,15.7038128 4.67176471,16.1712511 C4.65382353,16.2346723 3.11,21.8007702 6.34411765,23.0333745 C9.87529412,24.3793149 10.6747059,24.4559489 10.7070588,24.4582979 C10.6314706,24.4521319 10.6035294,24.4615277 10.6035294,24.4615277 L10.7744118,26.2147149 C10.75,26.2173574 10.7229412,26.2182383 10.6938235,26.2182383" id="Fill-9"></path>
                        <path d="M33.0882353,7.24294468 C32.9879412,7.24294468 32.8861765,7.22562128 32.7867647,7.18950638 C31.3914706,6.68301702 29.6632353,6.10840851 27.9923529,5.55288511 C24.3002941,4.32527234 22.5358824,3.71689787 21.9055882,3.30642128 C21.5170588,3.31992766 20.4529412,3.88895745 19.8067647,4.23454468 C19.1814706,4.56897447 18.535,4.91485532 17.9567647,5.13125106 C17.5002941,5.30154894 16.9920588,5.07105957 16.8208824,4.61565957 C16.6497059,4.16025957 16.8811765,3.65259574 17.3373529,3.48141702 C17.8052941,3.30642128 18.3991176,2.98872766 18.9735294,2.68160426 C20.5488235,1.8389234 21.9094118,1.11163404 22.8823529,1.84009787 C23.3241176,2.14399149 26.2217647,3.10734894 28.55,3.8813234 C30.2323529,4.44095745 31.9717647,5.01908936 33.3897059,5.5338 C33.8479412,5.69998723 34.0841176,6.20559574 33.9173529,6.66275745 C33.7873529,7.02038298 33.4488235,7.24294468 33.0882353,7.24294468" id="Fill-10"></path>
                    </g>
                </g>
            </g>
        </g>
    </g>
</svg>