<?xml version="1.0" encoding="UTF-8" standalone="no"?>
<svg width="69px" height="57px" viewBox="0 0 69 57" version="1.1" xmlns="http://www.w3.org/2000/svg" xmlns:xlink="http://www.w3.org/1999/xlink" xmlns:sketch="http://www.bohemiancoding.com/sketch/ns">
    <!-- Generator: Sketch 3.0.4 (8053) - http://www.bohemiancoding.com/sketch -->
    <title>footer_spotify</title>
    <desc>Created with Sketch.</desc>
    <defs></defs>
    <g id="Page-1" stroke="none" stroke-width="1" fill="none" fill-rule="evenodd" sketch:type="MSPage">
        <g id="footer-+-resume-+-spotify" sketch:type="MSLayerGroup" transform="translate(-516.000000, -211.000000)" fill="#FFFFFF">
            <g id="resume-+-spotify" transform="translate(420.000000, 211.000000)">
                <g id="footer_spotify" transform="translate(95.000000, 0.000000)">
                    <g id="PC-MASTER-RACE-+-Group-2" transform="translate(0.000000, 44.000000)" font-weight="420" font-family="Avenir Next" font-size="12" sketch:alignment="middle" sketch:type="MSTextLayer">
                        <text id="MY-SPOTIFY">
                            <tspan x="0.892" y="12">MY SPOTIFY</tspan>
                        </text>
                    </g>
                    <path d="M35.2747595,0 C26.8388354,0 20,6.92611538 20,15.4705897 C20,24.0146667 26.8388354,30.9411795 35.2747595,30.9411795 C43.7114684,30.9411795 50.5503038,24.0146667 50.5503038,15.4705897 C50.5503038,6.92611538 43.7114684,0 35.2747595,0 L35.2747595,0 Z M33.0337342,8.07430769 C37.5193165,8.07430769 42.2379873,9.00867949 45.6856582,11.0594487 C46.1498734,11.3257308 46.4724304,11.7279359 46.4724304,12.4643846 C46.4724304,13.3077436 45.8029873,13.9138333 45.031519,13.9138333 C44.7207342,13.9138333 44.5359114,13.8371282 44.2443544,13.6757692 C41.4798608,11.9966026 37.1889114,11.0717692 33.0396203,11.0717692 C30.9681139,11.0717692 28.8644304,11.2851923 26.9373291,11.8145769 C26.7152278,11.8714103 26.4350506,11.9838846 26.1540886,11.9838846 C25.3390633,11.9838846 24.713962,11.3312949 24.713962,10.5058205 C24.713962,9.66484615 25.2284051,9.19308974 25.7836582,9.02696154 C27.9611139,8.37715385 30.3912785,8.07430769 33.0337342,8.07430769 L33.0337342,8.07430769 Z M32.7221646,13.3904103 C36.7207722,13.3904103 40.5887089,14.3987051 43.6294557,16.2424103 C44.1391899,16.5388974 44.3271519,16.9136795 44.3271519,17.4649231 C44.3271519,18.1346026 43.8005443,18.6759103 43.1365949,18.6759103 C42.8050127,18.6759103 42.5966456,18.5407821 42.3714051,18.4080385 C39.8863038,16.9144744 36.442557,15.9224744 32.6715443,15.9224744 C30.7369873,15.9224744 29.0673038,16.1963077 27.6856456,16.5691026 C27.3882025,16.6521667 27.221038,16.7411923 26.9428228,16.7411923 C26.2855443,16.7411923 25.749519,16.1986923 25.749519,15.5282179 C25.749519,14.870859 26.0642278,14.4177821 26.6995316,14.2361538 C28.4166962,13.7588333 30.169962,13.3904103 32.7221646,13.3904103 L32.7221646,13.3904103 Z M32.9321013,18.4430128 C36.2746076,18.4430128 39.2533544,19.2192051 41.8165443,20.7755641 C42.1983544,21.0005128 42.4220253,21.2310256 42.4220253,21.8033333 C42.4220253,22.3613333 41.9742911,22.7710897 41.4720127,22.7710897 C41.2247975,22.7710897 41.0564557,22.6844487 40.8253291,22.5413718 C38.6113797,21.1853205 35.8512025,20.4727179 32.9215063,20.4727179 C31.2871392,20.4727179 29.6421772,20.6845513 28.103557,21.0084615 C27.8535949,21.0633077 27.5384937,21.1622692 27.3505316,21.1622692 C26.770557,21.1622692 26.3836456,20.6948846 26.3836456,20.1893462 C26.3836456,19.539141 26.7536835,19.2160256 27.2147595,19.1266026 C29.1010506,18.6914103 30.9802785,18.4430128 32.9321013,18.4430128 L32.9321013,18.4430128 Z" id="Imported-Layers" sketch:type="MSShapeGroup"></path>
                </g>
            </g>
        </g>
    </g>
</svg>