<?xml version="1.0" encoding="UTF-8" standalone="no"?>
<svg width="65px" height="59px" viewBox="0 0 65 59" version="1.1" xmlns="http://www.w3.org/2000/svg" xmlns:xlink="http://www.w3.org/1999/xlink" xmlns:sketch="http://www.bohemiancoding.com/sketch/ns">
    <!-- Generator: Sketch 3.0.4 (8053) - http://www.bohemiancoding.com/sketch -->
    <title>logo</title>
    <desc>Created with Sketch.</desc>
    <defs></defs>
    <g id="Page-1" stroke="none" stroke-width="1" fill="none" fill-rule="evenodd" sketch:type="MSPage">
        <g id="nav" sketch:type="MSLayerGroup" transform="translate(-13.000000, -27.000000)" fill="#111111">
            <g id="logo" transform="translate(13.000000, 27.000000)" sketch:type="MSShapeGroup">
                <path d="M29.3864596,58.2357353 L0.172391304,29.116258 L29.3864596,-0.00321935599 L58.6001242,29.116258 L29.3864596,58.2357353 L29.3864596,58.2357353 Z M3.02714286,29.116258 L29.3864596,55.390227 L55.7457764,29.116258 L29.3864596,2.84269134 L3.02714286,29.116258 L3.02714286,29.116258 Z" id="Fill-1"></path>
                <path d="M35.7483851,58.2357353 L6.53431677,29.116258 L35.7483851,-0.00321935599 L64.9620497,29.116258 L35.7483851,58.2357353 L35.7483851,58.2357353 Z M9.38906832,29.116258 L35.7483851,55.390227 L62.1077019,29.116258 L35.7483851,2.84269134 L9.38906832,29.116258 L9.38906832,29.116258 Z" id="Fill-2"></path>
                <path d="M23.6963354,28.9838619 L23.6963354,28.9299377 C23.6963354,23.4131688 27.9556522,19.0863544 33.7075466,19.0863544 C37.5869565,19.0863544 40.0831988,20.7089098 41.7651242,23.0344921 L37.8041615,26.0904658 C36.7189441,24.7383362 35.4706211,23.8727319 33.6530435,23.8727319 C30.9940994,23.8727319 29.1224224,26.1174279 29.1224224,28.8756111 L29.1224224,28.9299377 C29.1224224,31.7694097 30.9940994,33.9867411 33.6530435,33.9867411 C35.6337267,33.9867411 36.8000932,33.0672126 37.9394099,31.688121 L41.9007764,34.5006308 C40.1098447,36.9614261 37.695559,38.7735211 33.4903416,38.7735211 C28.0646584,38.7735211 23.6963354,34.6358438 23.6963354,28.9838619" id="Fill-3"></path>
            </g>
        </g>
    </g>
</svg>