<?xml version="1.0" encoding="UTF-8" standalone="no"?>
<svg width="52px" height="16px" viewBox="0 0 52 16" version="1.1" xmlns="http://www.w3.org/2000/svg" xmlns:xlink="http://www.w3.org/1999/xlink" xmlns:sketch="http://www.bohemiancoding.com/sketch/ns">
    <!-- Generator: Sketch 3.0.4 (8053) - http://www.bohemiancoding.com/sketch -->
    <title>projectNav_arrowPrev</title>
    <desc>Created with Sketch.</desc>
    <defs></defs>
    <g id="Page-1" stroke="none" stroke-width="1" fill="none" fill-rule="evenodd" sketch:type="MSPage">
        <g id="project-detail-+-previous-arrow-+-next-arrow" sketch:type="MSLayerGroup" transform="translate(-404.000000, -3888.000000)">
            <g id="project-nav" transform="translate(405.000000, 3870.000000)" sketch:type="MSShapeGroup">
                <g id="previous-arrow" transform="translate(0.000000, 15.000000)">
                    <g id="arrow-2-+-Previous-Project">
                        <g id="projectNav_arrowPrev" transform="translate(0.000000, 3.000000)">
                            <path d="M-0.139,11.06 C-0.139,11.61 0.251,11.835 0.727,11.56 L9.489,6.5 C9.966,6.225 9.966,5.775 9.489,5.5 L0.727,0.44 C0.251,0.165 -0.139,0.39 -0.139,0.94 L-0.139,11.06" id="Fill-1" fill="#1A1918" transform="translate(4.853875, 6.000000) rotate(-180.000000) translate(-4.853875, -6.000000) "></path>
                            <path d="M11.333,6 C16.02,6 16.02,14 20.707,14 C25.393,14 25.393,6 30.078,6 C34.767,6 34.767,14 39.456,14 C44.145,14 44.145,6 48.833,6" id="Stroke-2" stroke="#1A1918" stroke-width="4" stroke-linecap="square"></path>
                        </g>
                    </g>
                </g>
            </g>
        </g>
    </g>
</svg>