<?xml version="1.0" encoding="UTF-8" standalone="no"?>
<svg width="52px" height="16px" viewBox="0 0 52 16" version="1.1" xmlns="http://www.w3.org/2000/svg" xmlns:xlink="http://www.w3.org/1999/xlink" xmlns:sketch="http://www.bohemiancoding.com/sketch/ns">
    <!-- Generator: Sketch 3.0.4 (8053) - http://www.bohemiancoding.com/sketch -->
    <title>projectNav_arrowNext</title>
    <desc>Created with Sketch.</desc>
    <defs></defs>
    <g id="Page-1" stroke="none" stroke-width="1" fill="none" fill-rule="evenodd" sketch:type="MSPage">
        <g id="project-detail-+-previous-arrow-+-next-arrow" sketch:type="MSLayerGroup" transform="translate(-968.000000, -3888.000000)">
            <g id="project-nav" transform="translate(405.000000, 3870.000000)" sketch:type="MSShapeGroup">
                <g id="next-arrow" transform="translate(449.000000, 15.000000)">
                    <g id="arrow-+-Next-Project">
                        <g id="projectNav_arrowNext" transform="translate(116.000000, 3.000000)">
                            <path d="M39.861,11.06 C39.861,11.61 40.251,11.835 40.727,11.56 L49.489,6.5 C49.966,6.225 49.966,5.775 49.489,5.5 L40.727,0.44 C40.251,0.165 39.861,0.39 39.861,0.94 L39.861,11.06" id="Fill-1" fill="#1A1918"></path>
                            <path d="M0.333,6 C5.02,6 5.02,14 9.707,14 C14.393,14 14.393,6 19.078,6 C23.767,6 23.767,14 28.456,14 C33.145,14 33.145,6 37.833,6" id="Stroke-2" stroke="#1A1918" stroke-width="4" stroke-linecap="square"></path>
                        </g>
                    </g>
                </g>
            </g>
        </g>
    </g>
</svg>